<svg width="29" height="29" viewBox="0 0 29 29" fill="none" xmlns="http://www.w3.org/2000/svg">
<path d="M8.42502 27.9999C12.5258 27.9999 15.85 24.6756 15.85 20.5749C15.85 16.4741 12.5258 13.1499 8.42502 13.1499C4.32429 13.1499 1 16.4741 1 20.5749C1 21.9273 1.36157 23.1952 1.99333 24.2874L1.37125 27.6286L4.71251 27.0065C5.80464 27.6383 7.0726 27.9999 8.42502 27.9999Z" stroke="black" stroke-width="2" stroke-linecap="round" stroke-linejoin="round"/>
<path d="M18.9312 22.462C20.2492 22.2496 21.4873 21.7987 22.6 21.155L27.46 22.0599L26.5551 17.1999C27.474 15.6114 28 13.767 28 11.8C28 5.83531 23.1647 1 17.2 1C11.763 1 7.26438 5.01756 6.51093 10.2459" stroke="black" stroke-width="2" stroke-linecap="round" stroke-linejoin="round"/>
</svg>
