<svg width="29" height="31" viewBox="0 0 29 31" fill="none" xmlns="http://www.w3.org/2000/svg">
<path d="M23.5 9.64156C23.5 7.34967 22.5518 5.15166 20.8639 3.53106C19.1761 1.91044 16.887 1 14.5 1C12.113 1 9.82387 1.91044 8.13604 3.53106C6.44821 5.15166 5.5 7.34967 5.5 9.64156C5.5 19.7234 1 22.6039 1 22.6039H28C28 22.6039 23.5 19.7234 23.5 9.64156Z" stroke="black" stroke-width="2" stroke-linecap="round" stroke-linejoin="round"/>
<path d="M17.095 26.6548C16.8313 27.064 16.4529 27.4038 15.9973 27.6398C15.5419 27.8759 15.0256 28.0003 14.5 28.0003C13.9744 28.0003 13.4581 27.8759 13.0027 27.6398C12.5473 27.4038 12.1687 27.064 11.905 26.6548" stroke="black" stroke-width="4.42" stroke-linecap="round" stroke-linejoin="round"/>
</svg>
