<?xml version="1.0" standalone="no"?>
<!DOCTYPE svg PUBLIC "-//W3C//DTD SVG 20010904//EN"
 "http://www.w3.org/TR/2001/REC-SVG-20010904/DTD/svg10.dtd">
<svg version="1.0" xmlns="http://www.w3.org/2000/svg"
 width="500.000000pt" height="500.000000pt" viewBox="0 0 500.000000 500.000000"
 preserveAspectRatio="xMidYMid meet">

<g transform="translate(0.000000,500.000000) scale(0.100000,-0.100000)"
fill="#000000" stroke="none">
<path d="M1943 3261 c-36 -22 -83 -83 -103 -131 -10 -25 -18 -30 -34 -26 -98
26 -128 29 -137 15 -19 -30 -4 -44 66 -60 l70 -16 7 -71 c13 -126 59 -182 149
-182 55 0 101 29 140 90 18 27 35 47 39 45 9 -5 17 -42 31 -140 26 -185 59
-219 147 -155 l42 30 5 -28 c3 -15 12 -47 20 -72 19 -63 26 -165 11 -180 -7
-7 -11 -87 -12 -258 l-1 -248 -47 -67 -46 -68 0 -145 c0 -89 -4 -144 -10 -144
-5 0 -10 -9 -10 -19 0 -11 -4 -23 -10 -26 -17 -11 -12 -65 8 -71 9 -3 28 -11
42 -18 31 -16 121 -29 144 -20 18 7 23 74 6 74 -5 0 -10 5 -10 10 0 13 242 14
255 1 15 -14 252 -18 266 -4 21 21 -9 49 -91 84 l-81 34 6 180 c14 423 8 479
-60 568 -33 43 -77 141 -68 151 2 2 0 21 -6 42 -13 46 4 105 29 103 8 -1 20
-1 27 0 16 1 63 100 63 133 0 34 3 34 42 7 72 -52 170 -24 215 60 55 105 6
234 -95 248 -60 8 -92 -4 -133 -48 -42 -46 -80 -59 -127 -47 -28 7 -32 11 -22
23 7 8 18 15 26 15 7 0 16 10 20 23 11 31 13 179 3 198 -6 11 -24 15 -70 16
-58 1 -66 -2 -96 -32 -39 -39 -43 -83 -16 -141 17 -34 17 -37 0 -49 -15 -11
-28 -11 -75 1 -31 7 -91 21 -132 30 -48 11 -80 24 -88 36 -8 10 -19 18 -25 17
-50 -6 -54 -1 -60 70 -9 114 -52 171 -134 178 -36 3 -56 -1 -80 -16z m393
-327 c94 -19 109 -29 56 -38 -56 -8 -91 -39 -98 -87 -8 -48 -20 -41 -54 30
-20 44 -21 53 -10 80 15 36 7 35 106 15z m390 -114 c24 -36 25 -44 15 -67
l-12 -26 -26 39 c-15 21 -32 43 -40 47 -7 4 -13 17 -13 27 0 15 7 20 25 20 18
0 32 -11 51 -40z m-125 -782 c12 -24 37 -64 55 -89 39 -53 40 -61 18 -136 -18
-61 -15 -97 15 -197 16 -55 19 -84 14 -142 l-6 -74 -146 0 c-80 0 -152 4 -159
8 -22 15 -24 74 -4 147 26 90 77 228 96 257 26 40 63 151 70 211 4 31 12 57
17 57 5 0 18 -19 30 -42z"/>
</g>
</svg>
